<?xml version="1.0" encoding="UTF-8" standalone="no"?>
<!-- Generator: Gravit.io -->
<svg xmlns="http://www.w3.org/2000/svg" xmlns:xlink="http://www.w3.org/1999/xlink" style="isolation:isolate" viewBox="0 0 1000 230" width="1000pt" height="230pt">
    <defs>
        <clipPath id="_clipPath_pTS7wtkd1nbHQY3khOlPWvbJ73gikGsT">
            <rect width="1000" height="230"/>
        </clipPath>
    </defs>
    <g clip-path="url(#_clipPath_pTS7wtkd1nbHQY3khOlPWvbJ73gikGsT)">
        <path d=" M 599.62 133.83 L 599.62 133.83 Q 607.99 133.83 614.155 136.62 L 614.155 136.62 L 614.155 136.62 Q 620.32 139.41 623.65 144.54 L 623.65 144.54 L 623.65 144.54 Q 626.98 149.67 626.98 156.69 L 626.98 156.69 L 626.98 156.69 Q 626.98 163.62 623.65 168.795 L 623.65 168.795 L 623.65 168.795 Q 620.32 173.97 614.155 176.715 L 614.155 176.715 L 614.155 176.715 Q 607.99 179.46 599.62 179.46 L 599.62 179.46 L 586.93 179.46 L 586.93 196.83 L 572.35 196.83 L 572.35 133.83 L 599.62 133.83 Z " fill="rgb(0,0,0)"/>
        <path d=" M 598.81 167.58 L 598.81 167.58 Q 605.38 167.58 608.8 164.745 L 608.8 164.745 L 608.8 164.745 Q 612.22 161.91 612.22 156.69 L 612.22 156.69 L 612.22 156.69 Q 612.22 151.38 608.8 148.545 L 608.8 148.545 L 608.8 148.545 Q 605.38 145.71 598.81 145.71 L 598.81 145.71 L 586.93 145.71 L 586.93 167.58 L 598.81 167.58 Z " fill="rgb(0,0,0)"/>
        <path d=" M 651.82 185.13 L 686.11 185.13 L 686.11 196.83 L 637.33 196.83 L 637.33 133.83 L 684.94 133.83 L 684.94 145.53 L 651.82 145.53 L 651.82 159.21 L 681.07 159.21 L 681.07 170.55 L 651.82 170.55 L 651.82 185.13 Z " fill="rgb(0,0,0)"/>
        <path d=" M 753.52 196.83 L 737.86 196.83 L 725.71 179.28 L 724.99 179.28 L 712.3 179.28 L 712.3 196.83 L 697.72 196.83 L 697.72 133.83 L 724.99 133.83 L 724.99 133.83 Q 733.36 133.83 739.525 136.62 L 739.525 136.62 L 739.525 136.62 Q 745.69 139.41 749.02 144.54 L 749.02 144.54 L 749.02 144.54 Q 752.35 149.67 752.35 156.69 L 752.35 156.69 L 752.35 156.69 Q 752.35 163.71 748.975 168.795 L 748.975 168.795 L 748.975 168.795 Q 745.6 173.88 739.39 176.58 L 739.39 176.58 L 753.52 196.83 Z " fill="rgb(0,0,0)"/>
        <path d=" M 737.59 156.69 L 737.59 156.69 Q 737.59 151.38 734.17 148.545 L 734.17 148.545 L 734.17 148.545 Q 730.75 145.71 724.18 145.71 L 724.18 145.71 L 712.3 145.71 L 712.3 167.67 L 724.18 167.67 L 724.18 167.67 Q 730.75 167.67 734.17 164.79 L 734.17 164.79 L 734.17 164.79 Q 737.59 161.91 737.59 156.69 L 737.59 156.69 Z " fill="rgb(0,0,0)"/>
        <path d=" M 778.36 185.13 L 812.65 185.13 L 812.65 196.83 L 763.87 196.83 L 763.87 133.83 L 811.48 133.83 L 811.48 145.53 L 778.36 145.53 L 778.36 159.21 L 807.61 159.21 L 807.61 170.55 L 778.36 170.55 L 778.36 185.13 Z " fill="rgb(0,0,0)"/>
        <path d=" M 839.47 184.95 L 875.29 184.95 L 875.29 196.83 L 820.21 196.83 L 820.21 187.38 L 854.77 145.71 L 820.93 145.71 L 820.93 133.83 L 873.94 133.83 L 873.94 143.28 L 839.47 184.95 Z " fill="rgb(0,0,0)"/>
        <path d=" M 199.3 196.83 L 185.62 196.83 L 185.53 159.03 L 166.99 190.17 L 160.42 190.17 L 141.97 159.84 L 141.97 196.83 L 128.29 196.83 L 128.29 133.83 L 140.35 133.83 L 163.93 172.98 L 187.15 133.83 L 199.12 133.83 L 199.3 196.83 Z " fill="rgb(0,0,0)"/>
        <path d=" M 261.31 196.83 L 255.73 183.33 L 226.48 183.33 L 220.9 196.83 L 205.96 196.83 L 234.04 133.83 L 248.44 133.83 L 276.61 196.83 L 261.31 196.83 Z " fill="rgb(0,0,0)"/>
        <path d=" M 231.16 172.26 L 251.14 172.26 L 241.15 148.14 L 231.16 172.26 Z " fill="rgb(0,0,0)"/>
        <path d=" M 298.39 184.95 L 334.21 184.95 L 334.21 196.83 L 279.13 196.83 L 279.13 187.38 L 313.69 145.71 L 279.85 145.71 L 279.85 133.83 L 332.86 133.83 L 332.86 143.28 L 298.39 184.95 Z " fill="rgb(0,0,0)"/>
        <path d=" M 371.56 197.91 L 371.56 197.91 Q 358.06 197.91 350.545 190.44 L 350.545 190.44 L 350.545 190.44 Q 343.03 182.97 343.03 169.11 L 343.03 169.11 L 343.03 133.83 L 357.61 133.83 L 357.61 168.57 L 357.61 168.57 Q 357.61 185.49 371.65 185.49 L 371.65 185.49 L 371.65 185.49 Q 378.49 185.49 382.09 181.395 L 382.09 181.395 L 382.09 181.395 Q 385.69 177.3 385.69 168.57 L 385.69 168.57 L 385.69 133.83 L 400.09 133.83 L 400.09 169.11 L 400.09 169.11 Q 400.09 182.97 392.575 190.44 L 392.575 190.44 L 392.575 190.44 Q 385.06 197.91 371.56 197.91 L 371.56 197.91 Z " fill="rgb(0,0,0)"/>
        <path d=" M 444.64 197.91 L 444.64 197.91 Q 435.01 197.91 427.225 193.725 L 427.225 193.725 L 427.225 193.725 Q 419.44 189.54 414.985 182.115 L 414.985 182.115 L 414.985 182.115 Q 410.53 174.69 410.53 165.33 L 410.53 165.33 L 410.53 165.33 Q 410.53 155.97 414.985 148.545 L 414.985 148.545 L 414.985 148.545 Q 419.44 141.12 427.225 136.935 L 427.225 136.935 L 427.225 136.935 Q 435.01 132.75 444.73 132.75 L 444.73 132.75 L 444.73 132.75 Q 452.92 132.75 459.535 135.63 L 459.535 135.63 L 459.535 135.63 Q 466.15 138.51 470.65 143.91 L 470.65 143.91 L 461.29 152.55 L 461.29 152.55 Q 454.9 145.17 445.45 145.17 L 445.45 145.17 L 445.45 145.17 Q 439.6 145.17 435.01 147.735 L 435.01 147.735 L 435.01 147.735 Q 430.42 150.3 427.855 154.89 L 427.855 154.89 L 427.855 154.89 Q 425.29 159.48 425.29 165.33 L 425.29 165.33 L 425.29 165.33 Q 425.29 171.18 427.855 175.77 L 427.855 175.77 L 427.855 175.77 Q 430.42 180.36 435.01 182.925 L 435.01 182.925 L 435.01 182.925 Q 439.6 185.49 445.45 185.49 L 445.45 185.49 L 445.45 185.49 Q 454.9 185.49 461.29 178.02 L 461.29 178.02 L 470.65 186.66 L 470.65 186.66 Q 466.15 192.15 459.49 195.03 L 459.49 195.03 L 459.49 195.03 Q 452.83 197.91 444.64 197.91 L 444.64 197.91 Z " fill="rgb(0,0,0)"/>
        <path d=" M 526.27 196.83 L 520.69 183.33 L 491.44 183.33 L 485.86 196.83 L 470.92 196.83 L 499 133.83 L 513.4 133.83 L 541.57 196.83 L 526.27 196.83 Z " fill="rgb(0,0,0)"/>
        <path d=" M 496.12 172.26 L 516.1 172.26 L 506.11 148.14 L 496.12 172.26 Z " fill="rgb(0,0,0)"/>
        <path d=" M 411.295 87.12 L 411.295 24.12 L 425.875 24.12 L 425.875 75.24 L 457.465 75.24 L 457.465 87.12 L 411.295 87.12 Z " fill="rgb(0,0,0)"/>
        <path d=" M 480.145 75.42 L 514.435 75.42 L 514.435 87.12 L 465.655 87.12 L 465.655 24.12 L 513.265 24.12 L 513.265 35.82 L 480.145 35.82 L 480.145 49.5 L 509.395 49.5 L 509.395 60.84 L 480.145 60.84 L 480.145 75.42 Z " fill="rgb(0,0,0)"/>
        <path d=" M 556.375 88.2 L 556.375 88.2 Q 546.565 88.2 538.69 83.97 L 538.69 83.97 L 538.69 83.97 Q 530.815 79.74 526.36 72.315 L 526.36 72.315 L 526.36 72.315 Q 521.905 64.89 521.905 55.62 L 521.905 55.62 L 521.905 55.62 Q 521.905 46.35 526.36 38.925 L 526.36 38.925 L 526.36 38.925 Q 530.815 31.5 538.69 27.27 L 538.69 27.27 L 538.69 27.27 Q 546.565 23.04 556.375 23.04 L 556.375 23.04 L 556.375 23.04 Q 566.185 23.04 574.015 27.27 L 574.015 27.27 L 574.015 27.27 Q 581.845 31.5 586.345 38.925 L 586.345 38.925 L 586.345 38.925 Q 590.845 46.35 590.845 55.62 L 590.845 55.62 L 590.845 55.62 Q 590.845 64.89 586.345 72.315 L 586.345 72.315 L 586.345 72.315 Q 581.845 79.74 574.015 83.97 L 574.015 83.97 L 574.015 83.97 Q 566.185 88.2 556.375 88.2 L 556.375 88.2 Z " fill="rgb(0,0,0)"/>
        <path d=" M 556.375 75.78 L 556.375 75.78 Q 561.955 75.78 566.455 73.215 L 566.455 73.215 L 566.455 73.215 Q 570.955 70.65 573.52 66.06 L 573.52 66.06 L 573.52 66.06 Q 576.085 61.47 576.085 55.62 L 576.085 55.62 L 576.085 55.62 Q 576.085 49.77 573.52 45.18 L 573.52 45.18 L 573.52 45.18 Q 570.955 40.59 566.455 38.025 L 566.455 38.025 L 566.455 38.025 Q 561.955 35.46 556.375 35.46 L 556.375 35.46 L 556.375 35.46 Q 550.795 35.46 546.295 38.025 L 546.295 38.025 L 546.295 38.025 Q 541.795 40.59 539.23 45.18 L 539.23 45.18 L 539.23 45.18 Q 536.665 49.77 536.665 55.62 L 536.665 55.62 L 536.665 55.62 Q 536.665 61.47 539.23 66.06 L 539.23 66.06 L 539.23 66.06 Q 541.795 70.65 546.295 73.215 L 546.295 73.215 L 546.295 73.215 Q 550.795 75.78 556.375 75.78 L 556.375 75.78 Z " fill="rgb(0,0,0)"/>
    </g>
</svg>