<?xml version="1.0" encoding="UTF-8" standalone="no"?><!-- Generator: Gravit.io --><svg xmlns="http://www.w3.org/2000/svg" xmlns:xlink="http://www.w3.org/1999/xlink" style="isolation:isolate" viewBox="0 0 1000 230" width="1000pt" height="230pt"><defs><clipPath id="_clipPath_PYRV5s5BJNxSbJWmmzq6tkCWA4uruq25"><rect width="1000" height="230"/></clipPath></defs><g clip-path="url(#_clipPath_PYRV5s5BJNxSbJWmmzq6tkCWA4uruq25)"><path d=" M 142.015 196.83 L 142.015 133.83 L 170.635 133.83 L 170.635 133.83 Q 180.895 133.83 188.77 137.745 L 188.77 137.745 L 188.77 137.745 Q 196.645 141.66 201.01 148.77 L 201.01 148.77 L 201.01 148.77 Q 205.375 155.88 205.375 165.33 L 205.375 165.33 L 205.375 165.33 Q 205.375 174.78 201.01 181.89 L 201.01 181.89 L 201.01 181.89 Q 196.645 189 188.77 192.915 L 188.77 192.915 L 188.77 192.915 Q 180.895 196.83 170.635 196.83 L 170.635 196.83 L 142.015 196.83 Z " fill="rgb(0,0,0)"/><path d=" M 156.595 184.86 L 169.915 184.86 L 169.915 184.86 Q 179.365 184.86 184.99 179.595 L 184.99 179.595 L 184.99 179.595 Q 190.615 174.33 190.615 165.33 L 190.615 165.33 L 190.615 165.33 Q 190.615 156.33 184.99 151.065 L 184.99 151.065 L 184.99 151.065 Q 179.365 145.8 169.915 145.8 L 169.915 145.8 L 156.595 145.8 L 156.595 184.86 Z " fill="rgb(0,0,0)"/><path d=" M 230.845 185.13 L 265.135 185.13 L 265.135 196.83 L 216.355 196.83 L 216.355 133.83 L 263.965 133.83 L 263.965 145.53 L 230.845 145.53 L 230.845 159.21 L 260.095 159.21 L 260.095 170.55 L 230.845 170.55 L 230.845 185.13 Z " fill="rgb(0,0,0)"/><path d=" M 321.925 133.83 L 336.415 133.83 L 309.145 196.83 L 294.745 196.83 L 267.565 133.83 L 283.315 133.83 L 302.485 178.83 L 321.925 133.83 Z " fill="rgb(0,0,0)"/><path d=" M 356.125 185.13 L 390.415 185.13 L 390.415 196.83 L 341.635 196.83 L 341.635 133.83 L 389.245 133.83 L 389.245 145.53 L 356.125 145.53 L 356.125 159.21 L 385.375 159.21 L 385.375 170.55 L 356.125 170.55 L 356.125 185.13 Z " fill="rgb(0,0,0)"/><path d=" M 402.025 196.83 L 402.025 133.83 L 416.605 133.83 L 416.605 184.95 L 448.195 184.95 L 448.195 196.83 L 402.025 196.83 Z " fill="rgb(0,0,0)"/><path d=" M 485.815 197.91 L 485.815 197.91 Q 476.005 197.91 468.13 193.68 L 468.13 193.68 L 468.13 193.68 Q 460.255 189.45 455.8 182.025 L 455.8 182.025 L 455.8 182.025 Q 451.345 174.6 451.345 165.33 L 451.345 165.33 L 451.345 165.33 Q 451.345 156.06 455.8 148.635 L 455.8 148.635 L 455.8 148.635 Q 460.255 141.21 468.13 136.98 L 468.13 136.98 L 468.13 136.98 Q 476.005 132.75 485.815 132.75 L 485.815 132.75 L 485.815 132.75 Q 495.625 132.75 503.455 136.98 L 503.455 136.98 L 503.455 136.98 Q 511.285 141.21 515.785 148.635 L 515.785 148.635 L 515.785 148.635 Q 520.285 156.06 520.285 165.33 L 520.285 165.33 L 520.285 165.33 Q 520.285 174.6 515.785 182.025 L 515.785 182.025 L 515.785 182.025 Q 511.285 189.45 503.455 193.68 L 503.455 193.68 L 503.455 193.68 Q 495.625 197.91 485.815 197.91 L 485.815 197.91 Z " fill="rgb(0,0,0)"/><path d=" M 485.815 185.49 L 485.815 185.49 Q 491.395 185.49 495.895 182.925 L 495.895 182.925 L 495.895 182.925 Q 500.395 180.36 502.96 175.77 L 502.96 175.77 L 502.96 175.77 Q 505.525 171.18 505.525 165.33 L 505.525 165.33 L 505.525 165.33 Q 505.525 159.48 502.96 154.89 L 502.96 154.89 L 502.96 154.89 Q 500.395 150.3 495.895 147.735 L 495.895 147.735 L 495.895 147.735 Q 491.395 145.17 485.815 145.17 L 485.815 145.17 L 485.815 145.17 Q 480.235 145.17 475.735 147.735 L 475.735 147.735 L 475.735 147.735 Q 471.235 150.3 468.67 154.89 L 468.67 154.89 L 468.67 154.89 Q 466.105 159.48 466.105 165.33 L 466.105 165.33 L 466.105 165.33 Q 466.105 171.18 468.67 175.77 L 468.67 175.77 L 468.67 175.77 Q 471.235 180.36 475.735 182.925 L 475.735 182.925 L 475.735 182.925 Q 480.235 185.49 485.815 185.49 L 485.815 185.49 Z " fill="rgb(0,0,0)"/><path d=" M 558.535 133.83 L 558.535 133.83 Q 566.905 133.83 573.07 136.62 L 573.07 136.62 L 573.07 136.62 Q 579.235 139.41 582.565 144.54 L 582.565 144.54 L 582.565 144.54 Q 585.895 149.67 585.895 156.69 L 585.895 156.69 L 585.895 156.69 Q 585.895 163.62 582.565 168.795 L 582.565 168.795 L 582.565 168.795 Q 579.235 173.97 573.07 176.715 L 573.07 176.715 L 573.07 176.715 Q 566.905 179.46 558.535 179.46 L 558.535 179.46 L 545.845 179.46 L 545.845 196.83 L 531.265 196.83 L 531.265 133.83 L 558.535 133.83 Z " fill="rgb(0,0,0)"/><path d=" M 557.725 167.58 L 557.725 167.58 Q 564.295 167.58 567.715 164.745 L 567.715 164.745 L 567.715 164.745 Q 571.135 161.91 571.135 156.69 L 571.135 156.69 L 571.135 156.69 Q 571.135 151.38 567.715 148.545 L 567.715 148.545 L 567.715 148.545 Q 564.295 145.71 557.725 145.71 L 557.725 145.71 L 545.845 145.71 L 545.845 167.58 L 557.725 167.58 Z " fill="rgb(0,0,0)"/><path d=" M 667.255 196.83 L 653.575 196.83 L 653.485 159.03 L 634.945 190.17 L 628.375 190.17 L 609.925 159.84 L 609.925 196.83 L 596.245 196.83 L 596.245 133.83 L 608.305 133.83 L 631.885 172.98 L 655.105 133.83 L 667.075 133.83 L 667.255 196.83 Z " fill="rgb(0,0,0)"/><path d=" M 696.685 185.13 L 730.975 185.13 L 730.975 196.83 L 682.195 196.83 L 682.195 133.83 L 729.805 133.83 L 729.805 145.53 L 696.685 145.53 L 696.685 159.21 L 725.935 159.21 L 725.935 170.55 L 696.685 170.55 L 696.685 185.13 Z " fill="rgb(0,0,0)"/><path d=" M 785.965 133.83 L 800.365 133.83 L 800.365 196.83 L 788.395 196.83 L 756.985 158.58 L 756.985 196.83 L 742.585 196.83 L 742.585 133.83 L 754.645 133.83 L 785.965 172.08 L 785.965 133.83 Z " fill="rgb(0,0,0)"/><path d=" M 828.355 196.83 L 828.355 145.71 L 808.195 145.71 L 808.195 133.83 L 863.095 133.83 L 863.095 145.71 L 842.935 145.71 L 842.935 196.83 L 828.355 196.83 Z " fill="rgb(0,0,0)"/><path d=" M 471.46 24.12 L 485.41 24.12 L 464.8 87.12 L 449.14 87.12 L 435.28 44.46 L 420.97 87.12 L 405.4 87.12 L 384.7 24.12 L 399.82 24.12 L 414.04 68.4 L 428.89 24.12 L 442.39 24.12 L 456.79 68.76 L 471.46 24.12 Z " fill="rgb(0,0,0)"/><path d=" M 508 75.42 L 542.29 75.42 L 542.29 87.12 L 493.51 87.12 L 493.51 24.12 L 541.12 24.12 L 541.12 35.82 L 508 35.82 L 508 49.5 L 537.25 49.5 L 537.25 60.84 L 508 60.84 L 508 75.42 Z " fill="rgb(0,0,0)"/><path d=" M 600.16 54.36 L 600.16 54.36 Q 605.56 56.07 608.62 60.075 L 608.62 60.075 L 608.62 60.075 Q 611.68 64.08 611.68 69.93 L 611.68 69.93 L 611.68 69.93 Q 611.68 78.21 605.245 82.665 L 605.245 82.665 L 605.245 82.665 Q 598.81 87.12 586.48 87.12 L 586.48 87.12 L 553.9 87.12 L 553.9 24.12 L 584.68 24.12 L 584.68 24.12 Q 596.2 24.12 602.365 28.53 L 602.365 28.53 L 602.365 28.53 Q 608.53 32.94 608.53 40.5 L 608.53 40.5 L 608.53 40.5 Q 608.53 45.09 606.325 48.69 L 606.325 48.69 L 606.325 48.69 Q 604.12 52.29 600.16 54.36 L 600.16 54.36 Z " fill="rgb(0,0,0)"/><path d=" M 582.88 35.1 L 568.39 35.1 L 568.39 49.95 L 582.88 49.95 L 582.88 49.95 Q 588.28 49.95 591.07 48.06 L 591.07 48.06 L 591.07 48.06 Q 593.86 46.17 593.86 42.48 L 593.86 42.48 L 593.86 42.48 Q 593.86 38.79 591.07 36.945 L 591.07 36.945 L 591.07 36.945 Q 588.28 35.1 582.88 35.1 L 582.88 35.1 Z " fill="rgb(0,0,0)"/><path d=" M 585.4 76.14 L 585.4 76.14 Q 591.16 76.14 594.085 74.25 L 594.085 74.25 L 594.085 74.25 Q 597.01 72.36 597.01 68.4 L 597.01 68.4 L 597.01 68.4 Q 597.01 60.57 585.4 60.57 L 585.4 60.57 L 568.39 60.57 L 568.39 76.14 L 585.4 76.14 Z " fill="rgb(0,0,0)"/></g></svg>