<?xml version="1.0" encoding="UTF-8" standalone="no"?><!-- Generator: Gravit.io -->
<svg xmlns="http://www.w3.org/2000/svg" xmlns:xlink="http://www.w3.org/1999/xlink" style="isolation:isolate" viewBox="0 0 1000 230" width="1000pt" height="230pt">
<defs>
<clipPath id="_clipPath_kUojzg25xL5CkM7IlPObjkqdP49IjYCm">
<rect width="1000" height="230"/></clipPath></defs>
<g clip-path="url(#_clipPath_kUojzg25xL5CkM7IlPObjkqdP49IjYCm)">
    <path d=" M 216.085 196.83 L 216.085 133.83 L 244.705 133.83 L 244.705 133.83 Q 254.965 133.83 262.84 137.745 L 262.84 137.745 L 262.84 137.745 Q 270.715 141.66 275.08 148.77 L 275.08 148.77 L 275.08 148.77 Q 279.445 155.88 279.445 165.33 L 279.445 165.33 L 279.445 165.33 Q 279.445 174.78 275.08 181.89 L 275.08 181.89 L 275.08 181.89 Q 270.715 189 262.84 192.915 L 262.84 192.915 L 262.84 192.915 Q 254.965 196.83 244.705 196.83 L 244.705 196.83 L 216.085 196.83 Z " fill="rgb(0,0,0)"/>
    <path d=" M 230.665 184.86 L 243.985 184.86 L 243.985 184.86 Q 253.435 184.86 259.06 179.595 L 259.06 179.595 L 259.06 179.595 Q 264.685 174.33 264.685 165.33 L 264.685 165.33 L 264.685 165.33 Q 264.685 156.33 259.06 151.065 L 259.06 151.065 L 259.06 151.065 Q 253.435 145.8 243.985 145.8 L 243.985 145.8 L 230.665 145.8 L 230.665 184.86 Z " fill="rgb(0,0,0)"/>
    <path d=" M 304.915 185.13 L 339.205 185.13 L 339.205 196.83 L 290.425 196.83 L 290.425 133.83 L 338.035 133.83 L 338.035 145.53 L 304.915 145.53 L 304.915 159.21 L 334.165 159.21 L 334.165 170.55 L 304.915 170.55 L 304.915 185.13 Z " fill="rgb(0,0,0)"/>
    <path d=" M 395.995 133.83 L 410.485 133.83 L 383.215 196.83 L 368.815 196.83 L 341.635 133.83 L 357.385 133.83 L 376.555 178.83 L 395.995 133.83 Z " fill="rgb(0,0,0)"/>
    <path d=" M 430.195 185.13 L 464.485 185.13 L 464.485 196.83 L 415.705 196.83 L 415.705 133.83 L 463.315 133.83 L 463.315 145.53 L 430.195 145.53 L 430.195 159.21 L 459.445 159.21 L 459.445 170.55 L 430.195 170.55 L 430.195 185.13 Z " fill="rgb(0,0,0)"/>
    <path d=" M 476.095 196.83 L 476.095 133.83 L 490.675 133.83 L 490.675 184.95 L 522.265 184.95 L 522.265 196.83 L 476.095 196.83 Z " fill="rgb(0,0,0)"/>
    <path d=" M 559.885 197.91 L 559.885 197.91 Q 550.075 197.91 542.2 193.68 L 542.2 193.68 L 542.2 193.68 Q 534.325 189.45 529.87 182.025 L 529.87 182.025 L 529.87 182.025 Q 525.415 174.6 525.415 165.33 L 525.415 165.33 L 525.415 165.33 Q 525.415 156.06 529.87 148.635 L 529.87 148.635 L 529.87 148.635 Q 534.325 141.21 542.2 136.98 L 542.2 136.98 L 542.2 136.98 Q 550.075 132.75 559.885 132.75 L 559.885 132.75 L 559.885 132.75 Q 569.695 132.75 577.525 136.98 L 577.525 136.98 L 577.525 136.98 Q 585.355 141.21 589.855 148.635 L 589.855 148.635 L 589.855 148.635 Q 594.355 156.06 594.355 165.33 L 594.355 165.33 L 594.355 165.33 Q 594.355 174.6 589.855 182.025 L 589.855 182.025 L 589.855 182.025 Q 585.355 189.45 577.525 193.68 L 577.525 193.68 L 577.525 193.68 Q 569.695 197.91 559.885 197.91 L 559.885 197.91 Z " fill="rgb(0,0,0)"/>
    <path d=" M 559.885 185.49 L 559.885 185.49 Q 565.465 185.49 569.965 182.925 L 569.965 182.925 L 569.965 182.925 Q 574.465 180.36 577.03 175.77 L 577.03 175.77 L 577.03 175.77 Q 579.595 171.18 579.595 165.33 L 579.595 165.33 L 579.595 165.33 Q 579.595 159.48 577.03 154.89 L 577.03 154.89 L 577.03 154.89 Q 574.465 150.3 569.965 147.735 L 569.965 147.735 L 569.965 147.735 Q 565.465 145.17 559.885 145.17 L 559.885 145.17 L 559.885 145.17 Q 554.305 145.17 549.805 147.735 L 549.805 147.735 L 549.805 147.735 Q 545.305 150.3 542.74 154.89 L 542.74 154.89 L 542.74 154.89 Q 540.175 159.48 540.175 165.33 L 540.175 165.33 L 540.175 165.33 Q 540.175 171.18 542.74 175.77 L 542.74 175.77 L 542.74 175.77 Q 545.305 180.36 549.805 182.925 L 549.805 182.925 L 549.805 182.925 Q 554.305 185.49 559.885 185.49 L 559.885 185.49 Z " fill="rgb(0,0,0)"/>
    <path d=" M 632.605 133.83 L 632.605 133.83 Q 640.975 133.83 647.14 136.62 L 647.14 136.62 L 647.14 136.62 Q 653.305 139.41 656.635 144.54 L 656.635 144.54 L 656.635 144.54 Q 659.965 149.67 659.965 156.69 L 659.965 156.69 L 659.965 156.69 Q 659.965 163.62 656.635 168.795 L 656.635 168.795 L 656.635 168.795 Q 653.305 173.97 647.14 176.715 L 647.14 176.715 L 647.14 176.715 Q 640.975 179.46 632.605 179.46 L 632.605 179.46 L 619.915 179.46 L 619.915 196.83 L 605.335 196.83 L 605.335 133.83 L 632.605 133.83 Z " fill="rgb(0,0,0)"/>
    <path d=" M 631.795 167.58 L 631.795 167.58 Q 638.365 167.58 641.785 164.745 L 641.785 164.745 L 641.785 164.745 Q 645.205 161.91 645.205 156.69 L 645.205 156.69 L 645.205 156.69 Q 645.205 151.38 641.785 148.545 L 641.785 148.545 L 641.785 148.545 Q 638.365 145.71 631.795 145.71 L 631.795 145.71 L 619.915 145.71 L 619.915 167.58 L 631.795 167.58 Z " fill="rgb(0,0,0)"/>
    <path d=" M 684.805 185.13 L 719.095 185.13 L 719.095 196.83 L 670.315 196.83 L 670.315 133.83 L 717.925 133.83 L 717.925 145.53 L 684.805 145.53 L 684.805 159.21 L 714.055 159.21 L 714.055 170.55 L 684.805 170.55 L 684.805 185.13 Z " fill="rgb(0,0,0)"/>
    <path d=" M 786.505 196.83 L 770.845 196.83 L 758.695 179.28 L 757.975 179.28 L 745.285 179.28 L 745.285 196.83 L 730.705 196.83 L 730.705 133.83 L 757.975 133.83 L 757.975 133.83 Q 766.345 133.83 772.51 136.62 L 772.51 136.62 L 772.51 136.62 Q 778.675 139.41 782.005 144.54 L 782.005 144.54 L 782.005 144.54 Q 785.335 149.67 785.335 156.69 L 785.335 156.69 L 785.335 156.69 Q 785.335 163.71 781.96 168.795 L 781.96 168.795 L 781.96 168.795 Q 778.585 173.88 772.375 176.58 L 772.375 176.58 L 786.505 196.83 Z " fill="rgb(0,0,0)"/>
    <path d=" M 770.575 156.69 L 770.575 156.69 Q 770.575 151.38 767.155 148.545 L 767.155 148.545 L 767.155 148.545 Q 763.735 145.71 757.165 145.71 L 757.165 145.71 L 745.285 145.71 L 745.285 167.67 L 757.165 167.67 L 757.165 167.67 Q 763.735 167.67 767.155 164.79 L 767.155 164.79 L 767.155 164.79 Q 770.575 161.91 770.575 156.69 L 770.575 156.69 Z " fill="rgb(0,0,0)"/>
    <path d=" M 471.46 24.12 L 485.41 24.12 L 464.8 87.12 L 449.14 87.12 L 435.28 44.46 L 420.97 87.12 L 405.4 87.12 L 384.7 24.12 L 399.82 24.12 L 414.04 68.4 L 428.89 24.12 L 442.39 24.12 L 456.79 68.76 L 471.46 24.12 Z " fill="rgb(0,0,0)"/>
    <path d=" M 508 75.42 L 542.29 75.42 L 542.29 87.12 L 493.51 87.12 L 493.51 24.12 L 541.12 24.12 L 541.12 35.82 L 508 35.82 L 508 49.5 L 537.25 49.5 L 537.25 60.84 L 508 60.84 L 508 75.42 Z " fill="rgb(0,0,0)"/>
    <path d=" M 600.16 54.36 L 600.16 54.36 Q 605.56 56.07 608.62 60.075 L 608.62 60.075 L 608.62 60.075 Q 611.68 64.08 611.68 69.93 L 611.68 69.93 L 611.68 69.93 Q 611.68 78.21 605.245 82.665 L 605.245 82.665 L 605.245 82.665 Q 598.81 87.12 586.48 87.12 L 586.48 87.12 L 553.9 87.12 L 553.9 24.12 L 584.68 24.12 L 584.68 24.12 Q 596.2 24.12 602.365 28.53 L 602.365 28.53 L 602.365 28.53 Q 608.53 32.94 608.53 40.5 L 608.53 40.5 L 608.53 40.5 Q 608.53 45.09 606.325 48.69 L 606.325 48.69 L 606.325 48.69 Q 604.12 52.29 600.16 54.36 L 600.16 54.36 Z " fill="rgb(0,0,0)"/>
    <path d=" M 582.88 35.1 L 568.39 35.1 L 568.39 49.95 L 582.88 49.95 L 582.88 49.95 Q 588.28 49.95 591.07 48.06 L 591.07 48.06 L 591.07 48.06 Q 593.86 46.17 593.86 42.48 L 593.86 42.48 L 593.86 42.48 Q 593.86 38.79 591.07 36.945 L 591.07 36.945 L 591.07 36.945 Q 588.28 35.1 582.88 35.1 L 582.88 35.1 Z " fill="rgb(0,0,0)"/>
    <path d=" M 585.4 76.14 L 585.4 76.14 Q 591.16 76.14 594.085 74.25 L 594.085 74.25 L 594.085 74.25 Q 597.01 72.36 597.01 68.4 L 597.01 68.4 L 597.01 68.4 Q 597.01 60.57 585.4 60.57 L 585.4 60.57 L 568.39 60.57 L 568.39 76.14 L 585.4 76.14 Z " fill="rgb(0,0,0)"/>
</g></svg>