<?xml version="1.0" encoding="UTF-8" standalone="no"?><!-- Generator: Gravit.io --><svg xmlns="http://www.w3.org/2000/svg" xmlns:xlink="http://www.w3.org/1999/xlink" style="isolation:isolate" viewBox="0 0 1000 300" width="1000pt" height="300pt"><defs><clipPath id="_clipPath_em0fuGy5xCDn1QLU5O93C9vAfML9Qxso"><rect width="1000" height="300"/></clipPath></defs><g clip-path="url(#_clipPath_em0fuGy5xCDn1QLU5O93C9vAfML9Qxso)"><path d=" M 215.085 231.83 L 215.085 168.83 L 243.705 168.83 L 243.705 168.83 Q 253.965 168.83 261.84 172.745 L 261.84 172.745 L 261.84 172.745 Q 269.715 176.66 274.08 183.77 L 274.08 183.77 L 274.08 183.77 Q 278.445 190.88 278.445 200.33 L 278.445 200.33 L 278.445 200.33 Q 278.445 209.78 274.08 216.89 L 274.08 216.89 L 274.08 216.89 Q 269.715 224 261.84 227.915 L 261.84 227.915 L 261.84 227.915 Q 253.965 231.83 243.705 231.83 L 243.705 231.83 L 215.085 231.83 Z " fill="rgb(0,0,0)"/><path d=" M 229.665 219.86 L 242.985 219.86 L 242.985 219.86 Q 252.435 219.86 258.06 214.595 L 258.06 214.595 L 258.06 214.595 Q 263.685 209.33 263.685 200.33 L 263.685 200.33 L 263.685 200.33 Q 263.685 191.33 258.06 186.065 L 258.06 186.065 L 258.06 186.065 Q 252.435 180.8 242.985 180.8 L 242.985 180.8 L 229.665 180.8 L 229.665 219.86 Z " fill="rgb(0,0,0)"/><path d=" M 303.915 220.13 L 338.205 220.13 L 338.205 231.83 L 289.425 231.83 L 289.425 168.83 L 337.035 168.83 L 337.035 180.53 L 303.915 180.53 L 303.915 194.21 L 333.165 194.21 L 333.165 205.55 L 303.915 205.55 L 303.915 220.13 Z " fill="rgb(0,0,0)"/><path d=" M 394.995 168.83 L 409.485 168.83 L 382.215 231.83 L 367.815 231.83 L 340.635 168.83 L 356.385 168.83 L 375.555 213.83 L 394.995 168.83 Z " fill="rgb(0,0,0)"/><path d=" M 429.195 220.13 L 463.485 220.13 L 463.485 231.83 L 414.705 231.83 L 414.705 168.83 L 462.315 168.83 L 462.315 180.53 L 429.195 180.53 L 429.195 194.21 L 458.445 194.21 L 458.445 205.55 L 429.195 205.55 L 429.195 220.13 Z " fill="rgb(0,0,0)"/><path d=" M 475.095 231.83 L 475.095 168.83 L 489.675 168.83 L 489.675 219.95 L 521.265 219.95 L 521.265 231.83 L 475.095 231.83 Z " fill="rgb(0,0,0)"/><path d=" M 558.885 232.91 L 558.885 232.91 Q 549.075 232.91 541.2 228.68 L 541.2 228.68 L 541.2 228.68 Q 533.325 224.45 528.87 217.025 L 528.87 217.025 L 528.87 217.025 Q 524.415 209.6 524.415 200.33 L 524.415 200.33 L 524.415 200.33 Q 524.415 191.06 528.87 183.635 L 528.87 183.635 L 528.87 183.635 Q 533.325 176.21 541.2 171.98 L 541.2 171.98 L 541.2 171.98 Q 549.075 167.75 558.885 167.75 L 558.885 167.75 L 558.885 167.75 Q 568.695 167.75 576.525 171.98 L 576.525 171.98 L 576.525 171.98 Q 584.355 176.21 588.855 183.635 L 588.855 183.635 L 588.855 183.635 Q 593.355 191.06 593.355 200.33 L 593.355 200.33 L 593.355 200.33 Q 593.355 209.6 588.855 217.025 L 588.855 217.025 L 588.855 217.025 Q 584.355 224.45 576.525 228.68 L 576.525 228.68 L 576.525 228.68 Q 568.695 232.91 558.885 232.91 L 558.885 232.91 Z " fill="rgb(0,0,0)"/><path d=" M 558.885 220.49 L 558.885 220.49 Q 564.465 220.49 568.965 217.925 L 568.965 217.925 L 568.965 217.925 Q 573.465 215.36 576.03 210.77 L 576.03 210.77 L 576.03 210.77 Q 578.595 206.18 578.595 200.33 L 578.595 200.33 L 578.595 200.33 Q 578.595 194.48 576.03 189.89 L 576.03 189.89 L 576.03 189.89 Q 573.465 185.3 568.965 182.735 L 568.965 182.735 L 568.965 182.735 Q 564.465 180.17 558.885 180.17 L 558.885 180.17 L 558.885 180.17 Q 553.305 180.17 548.805 182.735 L 548.805 182.735 L 548.805 182.735 Q 544.305 185.3 541.74 189.89 L 541.74 189.89 L 541.74 189.89 Q 539.175 194.48 539.175 200.33 L 539.175 200.33 L 539.175 200.33 Q 539.175 206.18 541.74 210.77 L 541.74 210.77 L 541.74 210.77 Q 544.305 215.36 548.805 217.925 L 548.805 217.925 L 548.805 217.925 Q 553.305 220.49 558.885 220.49 L 558.885 220.49 Z " fill="rgb(0,0,0)"/><path d=" M 631.605 168.83 L 631.605 168.83 Q 639.975 168.83 646.14 171.62 L 646.14 171.62 L 646.14 171.62 Q 652.305 174.41 655.635 179.54 L 655.635 179.54 L 655.635 179.54 Q 658.965 184.67 658.965 191.69 L 658.965 191.69 L 658.965 191.69 Q 658.965 198.62 655.635 203.795 L 655.635 203.795 L 655.635 203.795 Q 652.305 208.97 646.14 211.715 L 646.14 211.715 L 646.14 211.715 Q 639.975 214.46 631.605 214.46 L 631.605 214.46 L 618.915 214.46 L 618.915 231.83 L 604.335 231.83 L 604.335 168.83 L 631.605 168.83 Z " fill="rgb(0,0,0)"/><path d=" M 630.795 202.58 L 630.795 202.58 Q 637.365 202.58 640.785 199.745 L 640.785 199.745 L 640.785 199.745 Q 644.205 196.91 644.205 191.69 L 644.205 191.69 L 644.205 191.69 Q 644.205 186.38 640.785 183.545 L 640.785 183.545 L 640.785 183.545 Q 637.365 180.71 630.795 180.71 L 630.795 180.71 L 618.915 180.71 L 618.915 202.58 L 630.795 202.58 Z " fill="rgb(0,0,0)"/><path d=" M 683.805 220.13 L 718.095 220.13 L 718.095 231.83 L 669.315 231.83 L 669.315 168.83 L 716.925 168.83 L 716.925 180.53 L 683.805 180.53 L 683.805 194.21 L 713.055 194.21 L 713.055 205.55 L 683.805 205.55 L 683.805 220.13 Z " fill="rgb(0,0,0)"/><path d=" M 785.505 231.83 L 769.845 231.83 L 757.695 214.28 L 756.975 214.28 L 744.285 214.28 L 744.285 231.83 L 729.705 231.83 L 729.705 168.83 L 756.975 168.83 L 756.975 168.83 Q 765.345 168.83 771.51 171.62 L 771.51 171.62 L 771.51 171.62 Q 777.675 174.41 781.005 179.54 L 781.005 179.54 L 781.005 179.54 Q 784.335 184.67 784.335 191.69 L 784.335 191.69 L 784.335 191.69 Q 784.335 198.71 780.96 203.795 L 780.96 203.795 L 780.96 203.795 Q 777.585 208.88 771.375 211.58 L 771.375 211.58 L 785.505 231.83 Z " fill="rgb(0,0,0)"/><path d=" M 769.575 191.69 L 769.575 191.69 Q 769.575 186.38 766.155 183.545 L 766.155 183.545 L 766.155 183.545 Q 762.735 180.71 756.165 180.71 L 756.165 180.71 L 744.285 180.71 L 744.285 202.67 L 756.165 202.67 L 756.165 202.67 Q 762.735 202.67 766.155 199.79 L 766.155 199.79 L 766.155 199.79 Q 769.575 196.91 769.575 191.69 L 769.575 191.69 Z " fill="rgb(0,0,0)"/><path d=" M 470.46 59.12 L 484.41 59.12 L 463.8 122.12 L 448.14 122.12 L 434.28 79.46 L 419.97 122.12 L 404.4 122.12 L 383.7 59.12 L 398.82 59.12 L 413.04 103.4 L 427.89 59.12 L 441.39 59.12 L 455.79 103.76 L 470.46 59.12 Z " fill="rgb(0,0,0)"/><path d=" M 507 110.42 L 541.29 110.42 L 541.29 122.12 L 492.51 122.12 L 492.51 59.12 L 540.12 59.12 L 540.12 70.82 L 507 70.82 L 507 84.5 L 536.25 84.5 L 536.25 95.84 L 507 95.84 L 507 110.42 Z " fill="rgb(0,0,0)"/><path d=" M 599.16 89.36 L 599.16 89.36 Q 604.56 91.07 607.62 95.075 L 607.62 95.075 L 607.62 95.075 Q 610.68 99.08 610.68 104.93 L 610.68 104.93 L 610.68 104.93 Q 610.68 113.21 604.245 117.665 L 604.245 117.665 L 604.245 117.665 Q 597.81 122.12 585.48 122.12 L 585.48 122.12 L 552.9 122.12 L 552.9 59.12 L 583.68 59.12 L 583.68 59.12 Q 595.2 59.12 601.365 63.53 L 601.365 63.53 L 601.365 63.53 Q 607.53 67.94 607.53 75.5 L 607.53 75.5 L 607.53 75.5 Q 607.53 80.09 605.325 83.69 L 605.325 83.69 L 605.325 83.69 Q 603.12 87.29 599.16 89.36 L 599.16 89.36 Z " fill="rgb(0,0,0)"/><path d=" M 581.88 70.1 L 567.39 70.1 L 567.39 84.95 L 581.88 84.95 L 581.88 84.95 Q 587.28 84.95 590.07 83.06 L 590.07 83.06 L 590.07 83.06 Q 592.86 81.17 592.86 77.48 L 592.86 77.48 L 592.86 77.48 Q 592.86 73.79 590.07 71.945 L 590.07 71.945 L 590.07 71.945 Q 587.28 70.1 581.88 70.1 L 581.88 70.1 Z " fill="rgb(0,0,0)"/><path d=" M 584.4 111.14 L 584.4 111.14 Q 590.16 111.14 593.085 109.25 L 593.085 109.25 L 593.085 109.25 Q 596.01 107.36 596.01 103.4 L 596.01 103.4 L 596.01 103.4 Q 596.01 95.57 584.4 95.57 L 584.4 95.57 L 567.39 95.57 L 567.39 111.14 L 584.4 111.14 Z " fill="rgb(0,0,0)"/></g></svg>